<svg xmlns="http://www.w3.org/2000/svg" width="64" height="64" viewBox="0 0 380.4 296.3" class="undefined"><path d="M270.8 43.6c0-8.8 0-16.6 0-24.4 0-6 1.1-6.7 7-6.5 9 0.3 18 0.3 27 0.4 8.9 0.1 8.9 0 8.9 8.7 0 14.2 0 28.3-0.2 42.5 0 3.2 0.9 5.1 3.8 6.7 10.2 5.6 20.2 11.6 30.4 17.3 2.8 1.6 4 3.5 3.9 6.8 -0.2 7.5 0 15-0.1 22.5 -0.1 5.2-2.5 6.5-7 4 -4-2.2-8-4.5-12.9-7.4 0 3 0 4.7 0 6.5 -0.3 54.2-0.5 108.3-0.9 162.5 0 4.8 1.3 6.4 6.1 6.3 12.3-0.3 24.7 0 37 0 1.3 0 2.9-0.4 3.9 0.2 1.2 0.7 2.5 2.1 2.7 3.4 0.1 0.9-1.3 2.5-2.4 3 -1.3 0.6-2.9 0.4-4.4 0.4 -102.5-0.2-204.9-0.4-307.4-0.7 -20.2-0.1-40.3-0.4-60.5-0.7 -2.7 0-5.8 0.3-5.7-3.7 0.1-3.7 3.2-3.3 5.6-3.3 11.5 0 23-0.1 34.5 0.2 4.2 0.1 5.8-1.1 5.8-5.6 0-54.7 0.1-109.3 0.2-164 0-1.1-0.2-2.2-0.4-4 -3.8 2.1-7 3.9-10.3 5.7 -4.8 2.6-7.1 1.3-7.2-4.3 -0.1-7.3-0.3-14.7 0.2-22 0.2-2.3 1.9-5.5 3.9-6.7 51.5-29.3 103.1-58.4 154.7-87.6 2.6-1.5 4.5-1.4 7.3 0.2 24.1 14.1 48.4 28 72.7 41.9C267.7 42.4 268.7 42.7 270.8 43.6zM133.8 185.5c-4.3 0-7.9 0-11.6 0 -4.3 0-6.5-1.6-6.2-6.3 0.3-5.1 0.1-10.3 0.1-15.5 0-7.1 0.3-7.5 7.2-7.4 30.3 0 60.7 0 91 0.1 14.2 0 28.3 0.1 42.5 0.3 6.1 0.1 6.7 1 6.7 7.2 0 5.3-0.1 10.7-0.1 16 0.1 4.1-1.5 6.2-5.9 6 -3.9-0.2-7.8 0-12.3 0 0 34.6 0 68.3 0 102.5 2.3 0 4.3 0 6.3 0 21.7 0.1 43.3 0.1 65 0.2 7.3 0 7.3 0 7.3-7.4 0.1-55.2 0.2-110.3 0.4-165.5 0-3.9-1.2-5.9-4.5-7.8 -42.2-24.5-84.2-49.1-126.3-73.9 -3.2-1.9-5.3-1.3-8.1 0.4 -42.5 24.5-85.1 48.9-127.7 73.3 -3 1.7-4.1 3.6-4.1 7 -0.2 55.7-0.4 111.3-0.8 167 0 4.8 1.3 6.3 6.1 6.3 23-0.1 46 0 69 0.4 4.8 0.1 6.2-1.4 6.2-6.2 -0.1-30.3 0-60.7 0.1-91C134 189.5 133.9 187.9 133.8 185.5zM237.9 288.1c0-2.4 0-4.2 0-6 0-30.2 0-60.3 0.3-90.5 0-4.7-1.4-5.8-5.9-5.8 -28.3 0.2-56.6 0-85 0 -1.8 0-3.5 0-5.5 0 -0.1 2.1-0.3 3.6-0.3 5.1 -0.2 30.3-0.3 60.6-0.8 91 -0.1 5.1 1.6 6.5 6.5 6.5 28.5-0.1 57 0 85.5 0.1C234.1 288.4 235.6 288.2 237.9 288.1zM344.2 113c0-5.4-0.2-9.6 0.1-13.7 0.3-3.5-1.2-5.4-4.2-7 -11.7-6.3-23.4-12.6-35-19.2 -36.7-21.3-73.4-42.6-110-64.1 -3.4-2-6.1-2.1-9.6-0.1 -21.1 12.1-42.3 24-63.4 36C94.9 60.1 67.6 75.5 40.4 91c-1.9 1.1-4.4 2.9-4.6 4.6 -0.6 5-0.2 10.1-0.2 16.1 3.8-2.1 6.7-3.7 9.5-5.3 46.8-27 93.7-54.1 140.5-81.2 2.9-1.7 5.4-1.7 8.3 0 38.3 22.5 76.7 44.9 115.1 67.3C320.4 99.1 331.7 105.7 344.2 113zM123.4 163.9c0 2.9 0 5.4 0 7.8 0 6.6 0 6.5 6.4 6.6 39.1 0.1 78.3 0.2 117.4 0.3 2.8 0 5.5 0 8.4 0 0-5.3 0-9.8 0-14.6C211.5 163.9 167.9 163.9 123.4 163.9zM306.7 64.8c0-14.9 0.1-28.4-0.2-41.8 0-1-2.6-2.8-4-2.9 -6.8-0.3-13.6-0.1-20.4-0.2 -3.2-0.1-4.5 1.2-4.4 4.4 0.1 6.8-0.1 13.6 0.1 20.4 0 1.4 0.7 3.5 1.8 4.2C288 54 296.7 58.9 306.7 64.8z" class="undefined"/><path d="M190.3 62c21 0.4 37.7 17.8 37.3 38.8 -0.4 19.9-18.4 36.6-38.9 36.2 -19.5-0.4-36.5-18-36.4-37.8C152.4 79 170.3 61.6 190.3 62zM220.2 99.3c-0.1-17.3-13.1-30.4-30.2-30.4 -17.3 0-30.5 13.4-30.4 30.8 0.1 17.1 13.5 30.3 30.6 30.1C207.4 129.7 220.3 116.6 220.2 99.3z" class="undefined"/></svg>
