<svg xmlns="http://www.w3.org/2000/svg" width="64" height="64" viewBox="0 0 64 64" class="undefined"><path d="M33.7 5.7l-3.9 0 -0.1 0c-0.6 0.1-1 0.6-1 1.3v3.9c0 0.8 0.5 1.4 1.2 1.4 0.7 0 1.4 0 2.1 0 0.7 0 1.4 0 2.1 0 0.3 0 0.4-0.1 0.6-0.2 0 0 0.1 0 0.1-0.1l0.5-0.2 0-4.4c0-0.7 0-1.1-0.3-1.5C34.6 5.7 34.1 5.7 33.7 5.7zM33.8 7.2c0 0.1 0 0.2 0 0.3l0 3.3c-0.6 0-1.2 0-1.7 0h-0.4c-0.5 0-1 0-1.5 0V7.2l3.5 0C33.7 7.2 33.7 7.2 33.8 7.2z" class="undefined"/><path d="M11.2 36.7c0-0.7 0-1.1-0.3-1.5 -0.3-0.4-0.8-0.4-1.2-0.4l-3.9 0 -0.1 0c-0.6 0-1.1 0.5-1.1 1.2 0 1.5 0 3.1 0 4.6v0.8h6.6L11.2 36.7zM6 39.9c0-1.2 0-2.4 0-3.5l3.5 0c0 0 0 0 0.1 0 0 0.1 0 0.2 0 0.3l0 3.2H6z" class="undefined"/><path d="M5.7 45.9l-0.2 0c-0.6 0.1-1 0.5-1 1.2 0 1.4 0 2.8 0 4.2 0 0.2 0.1 0.4 0.1 0.6l0.2 0.7 4.7 0c0.4 0 0.9 0 1.2-0.4 0.4-0.4 0.3-0.8 0.3-1.5l0-4.8H5.7zM9.7 51c0 0 0 0-0.1 0L6.1 51c0-1.2 0-2.4 0-3.6h3.6l0 3.3C9.7 50.8 9.7 50.9 9.7 51z" class="undefined"/><path d="M53.3 41.3c0.3 0.1 0.6 0.2 0.9 0.2 1.2 0 2.4 0 3.6 0h0c0.9 0 1.5-0.5 1.5-1.4v-3.9c0-0.2 0-0.4-0.1-0.5 0-0.1 0-0.1 0-0.2l-0.1-0.6H54.1l-0.2 0c-0.7 0.1-1.1 0.6-1.1 1.2 0 1 0 2 0 3l0 2L53.3 41.3zM54.3 36.3h3.6l0 3.6c-0.6 0-1.2 0-1.8 0 -0.6 0-1.2 0-1.8 0l0-0.9C54.3 38.2 54.3 37.2 54.3 36.3z" class="undefined"/><path d="M39.8 23c0 0 0 0.1 0 0.1l0.2 0.5 4.7 0c0.4 0 0.9 0 1.2-0.4 0.4-0.4 0.3-0.8 0.3-1.5l0-4.8h-5.4l-0.2 0c-0.6 0.1-1 0.5-1 1.2 0 1.4 0 2.8 0 4.2C39.6 22.7 39.7 22.9 39.8 23zM41.1 18.6h3.6l0 3.3c0 0.1 0 0.2 0 0.3 0 0 0 0-0.1 0l-3.6 0C41.1 21 41.1 19.8 41.1 18.6z" class="undefined"/><path d="M63.8 21.4c-0.1-1-0.5-1.5-1.6-1.6 -0.1 0-0.2 0-0.3 0l-11.9 0v-17.1c0-1.8-0.5-2.1-2.1-2.1H16c-1.6 0-2.1 0.5-2.1 2.1v17.1H2.3c-1.6 0-2.1 0.5-2.1 2.1v39.3l0 0.3c0.1 1.3 0.4 1.8 1.9 1.8 0.9 0 1.8 0 2.7 0l0.5 0c1.5 0 3 0 4.5 0 1.2 0 2.5 0 3.7 0h2.3c2.5 0 5.1 0 7.6 0 1.2 0 2.4 0 3.7 0v0l8.7 0h12.1l0.9 0c0.2 0 0.3 0 0.5 0 0.1 0 0.3 0 0.4 0l0.9 0 0.4 0c0.6 0 1.1 0 1.7 0 1.2 0 2.4 0 3.6 0 1.9 0 3.7 0 5.6 0 1.5 0 2-0.5 2-2V21.8l0-0.1C63.8 21.6 63.8 21.5 63.8 21.4zM36.9 54c0-2-1-3.6-3-4.4 -1.6-0.7-3.4-0.5-4.8 0.6 -1.3 1-2 2.4-2 4.1 0 1.7 0 3.4 0 5.1l0 2.5h0l0 0c-1.2 0-2.4 0-3.7 0 -2.5 0-5 0-7.6 0h-0.4v0l-1.9 0c-2.7 0-5.5 0-8.2 0l-0.5 0c-0.9 0-1.8 0-2.7 0 -0.2 0-0.3 0-0.4 0 0-0.1 0-0.3 0-0.4V21.9c0-0.3 0-0.5 0-0.6 0.1 0 0.3 0 0.6 0h13.2V2.7c0-0.3 0-0.5 0-0.6 0.1 0 0.3 0 0.6 0h31.9c0.1 0 0.4 0 0.6 0 0 0.1 0 0.3 0 0.6V21.5l1.3-0.1 11.6 0 0.5 0c0.1 0 0.1 0 0.2 0 0.1 0 0.1 0 0.2 0 0 0 0 0.1 0 0.2 0 0 0 0.1 0 0.2L62.3 61.2c0 0.3 0 0.4 0 0.5 -0.1 0-0.2 0-0.5 0 -3.8 0-7.5 0-11.2 0l-0.9 0c-0.2 0-0.3 0-0.4 0 -0.1 0-0.3 0-0.4 0l-11.9 0 0-2.1C36.9 57.8 36.9 55.8 36.9 54zM28.6 54.2c0-1.2 0.4-2.2 1.4-2.9 1.1-0.8 2.2-0.9 3.3-0.4 1.4 0.6 2.1 1.7 2.1 3.1 0 1.9 0 3.8 0 5.7l0 2.1h-6.8l0-2.5C28.6 57.6 28.6 55.8 28.6 54.2z" class="undefined"/><path d="M33.7 40l-3.9 0 -0.1 0c-0.6 0.1-1 0.6-1 1.3v3.9c0 0.8 0.5 1.4 1.2 1.4 0.7 0 1.4 0 2.1 0s1.4 0 2.1 0c0.3 0 0.4-0.1 0.6-0.2 0 0 0.1 0 0.1 0l0.5-0.2 0-4.4c0-0.7 0-1.1-0.3-1.5C34.6 40 34.1 40 33.7 40zM33.8 41.5c0 0.1 0 0.2 0 0.3l0 3.3c-0.6 0-1.2 0-1.7 0l-0.5 0c-0.5 0-0.9 0-1.4 0v-3.6l3.5 0C33.7 41.5 33.7 41.5 33.8 41.5z" class="undefined"/><path d="M57.9 45.9c-0.4 0-0.9 0-1.3 0l-2.6 0 -0.1 0c-0.7 0.1-1.1 0.6-1.1 1.3 0 1.3 0 2.6 0 3.9 0 1 0.6 1.4 1.2 1.4 1.5 0 3 0 4.5 0h0.5l0.2-0.5c0.1-0.3 0.2-0.6 0.2-0.9 0-1.2 0-2.4 0-3.6 0-0.5-0.1-0.9-0.4-1.1C58.8 46 58.4 45.9 57.9 45.9zM57.9 47.4C57.9 47.4 57.9 47.4 57.9 47.4c0 1.2 0 2.4 0 3.6 -1.2 0-2.4 0-3.6 0 0-1.2 0-2.4 0-3.6l2.3 0C57.1 47.4 57.5 47.4 57.9 47.4z" class="undefined"/><path d="M24.2 29.1l-0.1-0.6h-5.1l-0.2 0c-0.7 0.1-1.1 0.6-1.1 1.2 0 1 0 2 0 3l0 2 0.5 0.2c0.3 0.1 0.6 0.2 0.9 0.2 1.2 0 2.4 0 3.6 0h0c0.5 0 0.9-0.1 1.1-0.4 0.3-0.3 0.4-0.7 0.4-1v-3.9c0-0.2 0-0.4-0.1-0.5C24.2 29.2 24.2 29.2 24.2 29.1zM22.8 30l0 3.6c-0.6 0-1.2 0-1.8 0 -0.6 0-1.2 0-1.8 0l0-0.9c0-0.9 0-1.8 0-2.7H22.8z" class="undefined"/><path d="M54 30.5c1.5 0 3 0 4.6 0h0.8v-6.6h-5.3l-0.1 0c-0.7 0.1-1.1 0.6-1.1 1.3 0 1.3 0 2.6 0 3.9C52.8 30.2 53.4 30.5 54 30.5zM54.3 29c0-1.2 0-2.4 0-3.6h3.5v3.6C56.7 29 55.5 29 54.3 29z" class="undefined"/><path d="M33.7 28.5l-3.6 0 -0.2 0 -0.1 0c-0.4 0.1-1.1 0.4-1.1 1.5v3.7c0 1.3 1 1.4 1.3 1.4 0.7 0 1.4 0 2.1 0 0.7 0 1.4 0 2.1 0 0.2 0 0.4-0.1 0.5-0.1l0.7-0.2 0-4.4c0-0.7 0-1.1-0.3-1.5C34.6 28.5 34.1 28.5 33.7 28.5zM33.8 30c0 0.1 0 0.2 0 0.3l0 3.3c-0.6 0-1.2 0-1.7 0l-1.3 0 -0.5 0v-3.6l3.6 0C33.7 30 33.7 30 33.8 30z" class="undefined"/><path d="M24.1 40.5l-0.2-0.5h-4.9l-0.1 0c-0.7 0.1-1.1 0.6-1.1 1.4l0 1.3c0 0.8 0 1.7 0 2.5 0 0.9 0.6 1.4 1.4 1.4h3.8c0.8 0 1.4-0.5 1.4-1.2 0-1.4 0-2.8 0-4.2 0-0.3-0.1-0.4-0.2-0.6C24.1 40.6 24.1 40.5 24.1 40.5zM19.2 41.5h3.6l0 1.2c0 0.8 0 1.6 0 2.4H19.2c0-0.8 0-1.6 0-2.5L19.2 41.5z" class="undefined"/><path d="M18.9 23.7c1.5 0 3 0 4.6 0h0.7v-6.6h-5.3l-0.1 0c-0.7 0.1-1.1 0.6-1.1 1.3 0 1.3 0 2.6 0 3.9C17.7 23.4 18.3 23.7 18.9 23.7zM19.2 22.2c0-1.2 0-2.4 0-3.6h3.5v3.6C21.6 22.2 20.4 22.2 19.2 22.2z" class="undefined"/><path d="M44.8 40c-0.7 0-1.3 0-2 0l-2 0 -0.2 0c-0.6 0.1-1 0.6-1 1.3v3.9c0 0.9 0.5 1.4 1.4 1.4H44.8c0.9 0 1.5-0.6 1.5-1.5 0-1.2 0-2.4 0-3.6 0-0.5-0.1-0.8-0.4-1.1C45.6 40.1 45.3 40 44.8 40zM44.8 45.1c0 0 0 0 0 0h-3.6v-3.6l1.7 0c0.7 0 1.3 0 1.9 0C44.7 42.7 44.7 43.9 44.8 45.1z" class="undefined"/><path d="M40.9 35.1c0.7 0 1.4 0 2.1 0 0.7 0 1.4 0 2.1 0 0.3 0 0.4-0.1 0.6-0.2 0 0 0.1 0 0.1 0l0.5-0.2 0-4.4c0-0.7 0-1.1-0.3-1.5 -0.3-0.4-0.8-0.4-1.2-0.4l-3.9 0 -0.1 0c-0.6 0.1-1 0.6-1 1.3v3.9C39.6 34.6 40.1 35.1 40.9 35.1zM41.1 33.7v-3.6l3.5 0c0 0 0 0 0.1 0 0 0.1 0 0.2 0 0.3l0 3.3c-0.6 0-1.2 0-1.7 0h-0.5C42 33.6 41.6 33.6 41.1 33.7z" class="undefined"/><path d="M5.7 23.9l-0.2 0c-0.6 0.1-1 0.5-1 1.2 0 1.4 0 2.8 0 4.2 0 0.2 0.1 0.4 0.1 0.6l0.2 0.7 4.7 0c0.4 0 0.9 0 1.2-0.4 0.4-0.4 0.3-0.8 0.3-1.5l0-4.8H5.7zM9.7 29c0 0 0 0-0.1 0L6.1 29c0-1.2 0-2.4 0-3.6h3.6l0 3.3C9.7 28.8 9.7 28.9 9.7 29z" class="undefined"/><path d="M41 12.3h0.1l0.1 0.2V12.3H44.8c0.9 0 1.5-0.6 1.5-1.5 0-1.2 0-2.4 0-3.6 0-0.5-0.1-0.8-0.4-1.1C45.5 5.7 45 5.7 44.9 5.7c0 0-0.1 0-0.1 0 -0.7 0-1.3 0-2 0l-2 0 -0.2 0c-0.6 0.1-1 0.6-1 1.3v3.9C39.6 11.8 40.2 12.3 41 12.3zM41.1 7.2l1.7 0c0.7 0 1.3 0 1.9 0 0 1.2 0 2.4 0 3.6 0 0 0 0 0 0h-3.6V7.2z" class="undefined"/><path d="M30.2 23.7c1.2 0 2.3 0 3.6 0h0c0.5 0 0.9-0.1 1.1-0.4 0.2-0.2 0.3-0.5 0.3-0.8 0-1.5 0-3 0-4.7v-0.7l-5.2 0 -0.1 0 -0.1 0c-0.7 0.1-1.2 0.6-1.2 1.4v3.8C28.6 23.2 29.2 23.7 30.2 23.7zM30.1 22.2l0-3.6h3.6c0 1.2 0 2.4 0 3.6 0 0 0 0 0 0 -1.2 0-2.4 0-3.6 0C30.2 22.2 30.2 22.2 30.1 22.2z" class="undefined"/><path d="M17.7 10.9c0 0.9 0.6 1.4 1.4 1.4h3.8c0.8 0 1.4-0.5 1.4-1.2 0-1.4 0-2.8 0-4.2 0-0.3-0.1-0.4-0.2-0.6 0 0 0-0.1-0.1-0.1L23.9 5.7h-4.9l-0.1 0C18.1 5.8 17.7 6.3 17.7 7.1l0 1.3C17.7 9.2 17.7 10 17.7 10.9zM19.2 7.2h3.6l0 1.2c0 0.8 0 1.6 0 2.4H19.2c0-0.8 0-1.6 0-2.5L19.2 7.2z" class="undefined"/></svg>
