<svg xmlns="http://www.w3.org/2000/svg" width="249" height="249" viewBox="0 0 248.7 248.9" class="undefined"><path d="M180 118.9c4.8-7.2 9.6-14.4 14.5-21.6 1.6-2.4 3.4-4.8 4.8-7.4 0.5-0.8 0.3-2.1 0.5-3.1-0.9 0.5-2.2 0.7-2.7 1.5-2.4 3.3-4.6 6.7-6.8 10.1-1.1 1.6-2.3 2.9-4.4 1.5-2-1.4-1.9-2.9-0.6-4.9 7.5-11.1 15-22.3 22.3-33.5 1.3-2 3-2.3 4.6-1.3 1.9 1.1 1.5 3 0.4 4.7-1.4 2.1-2.8 4.3-4.2 6.4 1.4 1.9 2.3 1.6 3.4-0.1 1.9-3.1 3.9-6.1 6.1-9 0.8-1.1 2.5-1.6 3.7-2.4 0.9-0.6 1.9-1.1 2.5-1.9 3.1-4.4 6-9 9.1-13.5 1.9-2.8 3.3-3 6.1-1 2.4 1.7 4.8 3.3 7.3 4.9 2.3 1.5 2.6 3.2 1.1 5.4-3 4.5-6.1 9-9 13.6-0.6 1-0.4 2.6-0.7 3.8-0.4 1.6-0.7 3.3-1.6 4.6-17.5 26.3-35 52.7-52.8 78.9-3.2 4.7-4.7 9.3-4.5 15 0.3 16.2 0.2 32.3 0 48.5 0 1.7-0.8 3.8-2 5-7.1 7.3-14.4 14.4-21.5 21.7-2.7 2.8-5.3 4-9.4 4-23.5-0.3-47-0.1-70.6-0.1-23.5 0-47 0-70.6 0-4.8 0-5.2-0.4-5.2-5.2C0 174.1 0 104.7 0 35.3c0-10.2 0-20.4 0-30.5 0-4.2 0.5-4.7 4.7-4.7 56.5 0 113.1 0 169.6 0 4.6 0 5 0.5 5 5.1 0 36.7 0 73.5 0 110.2 0 1.1 0 2.2 0 3.4C179.5 118.8 179.8 118.9 180 118.9zM5.8 242.9c47.3 0 94.4 0 141.8 0 0-7.2 0-14.2 0-21.2 0-3.9 0.6-4.5 4.6-4.5 6 0 12-0.1 18 0 2.8 0.1 3.7-0.9 3.6-3.7-0.1-13.2-0.1-26.5-0.1-39.7 0-0.7-0.2-1.5-0.4-2.8-1 1.4-1.6 2.3-2.3 3.1-2.4 2.8-3.1 7.6-8.3 7.4-0.4 0-0.8 1-1.3 1.5-5.1 5.9-10 12-15.4 17.6-2 2-5.4 2.4-7.3 4.9-0.2 0.2-0.9 0.2-1.3 0.2-4.1 0-8.1 0-12.2 0-2.5 0-3.7-1.4-4-3.7-0.1-0.9-0.1-1.8-0.2-3-3.8 1.9-7.5 3.4-11 5.5-2.8 1.7-4.8 1.1-6.7-1.2-1.7-2.1-3.6-4.1-5.2-5.9-3.1 1.5-5.4 2.6-7.7 3.8-2.4 1.2-4.8 2.5-7.3 3.6-3.2 1.6-5.1 0.4-5.3-3.3-0.1-2 0-3.9 0-5.9-2.8 2.5-4.7 5.2-6.9 7.7-0.8 1-2 2.2-3.1 2.2-4.3 0.3-8.6 0.3-12.9-0.1-1.1-0.1-2.1-2.1-3.1-3.3 1.1-0.9 2.2-2.3 3.4-2.5 2.5-0.4 5.2-0.3 7.8-0.1 2.5 0.2 4-0.8 5.3-2.7 2.9-4 5.8-8.1 8.9-11.9 1.1-1.3 3-1.9 4.5-2.9 0.8 1.7 2 3.4 2.2 5.2 0.4 3.1 0.1 6.3 0.1 10.1 2.5-1.2 4.2-2 5.9-2.8 11-5.3 7.6-5.5 15.6 2.3 1.4 1.4 2.5 1.8 4.4 0.8 3.5-2 7.2-3.7 10.9-5.5 5-2.5 6.6-1.4 6.7 4.2 0 1 0.7 2.9 1.2 3 2.6 0.3 5.2 0.1 7.8 0.1 0-2.2-0.5-3.9 0.1-5.1 3.4-7.1 7-14.1 10.6-21.2 0.4-0.7 1-1.9 0.7-2.4-1.5-2.4-0.1-4.1 1.1-5.9 7.5-11.3 15.1-22.5 22.5-33.8 1.2-1.9 2.1-4.3 2.1-6.5 0.1-38.4 0.1-76.9 0.1-115.3 0-1.2-0.2-2.4-0.2-3.6-56.1 0-111.8 0-167.6 0C5.8 84.9 5.8 163.7 5.8 242.9zM170.3 164.7c15.1-22.6 30-44.9 45.1-67.4-3.4-2.2-6.4-4.3-9.8-6.5-15 22.6-29.9 44.9-44.8 67.4C163.9 160.4 166.9 162.4 170.3 164.7zM231.5 73.2c-3.5-2.3-6.5-4.4-9.7-6.5-2.2 3.3-4.2 6.2-6.4 9.5 3.3 2.2 6.4 4.3 9.7 6.5C227.2 79.5 229.2 76.6 231.5 73.2zM153.5 237.1c4.7-4.7 9.6-9.6 14.2-14.2-4.2 0-9.1 0-14.2 0C153.5 228.1 153.5 232.9 153.5 237.1zM221.8 87.7c-5.7-3.9-11.1-7.5-16.7-11.3-1.1 1.8-2.1 3.3-3.1 4.9 5.7 3.7 11.2 7.3 16.8 11C219.8 90.7 220.7 89.4 221.8 87.7zM142.7 194.5c0.3 0.3 0.6 0.5 1 0.8 4.9-5.6 9.7-11.2 14.9-17.2-2.2-1.5-3.7-2.5-5.8-3.8C149.3 181.3 146 187.9 142.7 194.5zM166.9 169.6c-3.4-2.2-6.4-4.2-9.9-6.5-0.2 2.4-3.9 3.4-1.3 5.6 2.4 2.1 5.3 3.6 8.1 5.5C164.9 172.6 165.8 171.3 166.9 169.6zM232.2 56.3c-1.5 2.3-3.1 4.6-4.7 7.1 1.8 1.2 3.3 2.1 4.9 3.2 1.7-2.5 3.1-4.7 4.7-7C235.4 58.5 234 57.5 232.2 56.3zM235.6 51.4c1.6 1.1 3.1 2.1 5 3.4 1.8-4-2-4-3.4-5.7C236.7 49.9 236.2 50.6 235.6 51.4z" class="undefined"/><path d="M80.6 144.7c-19.2 0-38.4 0-57.6 0-0.7 0-1.4 0-2 0-2 0.1-3.7-0.4-3.7-2.8 0-2.6 1.7-3.1 3.9-3.1 4.3 0 8.6 0 12.9 0 35.2 0 70.5 0 105.7 0 0.8 0 1.8-0.3 2.3 0.1 1 0.8 2.4 2 2.4 3 0 0.9-1.5 2-2.5 2.8-0.4 0.3-1.3 0.1-2 0.1C120.2 144.7 100.4 144.7 80.6 144.7z" class="undefined"/><path d="M81 110.1c-19.5 0-39.1 0-58.6 0-0.9 0-2.1 0.3-2.6-0.1-1-0.8-2.3-2.1-2.3-3.1 0-0.9 1.6-2.3 2.7-2.6 2.1-0.4 4.3-0.1 6.4-0.1 38 0 75.9 0 113.9 0 3.4 0 5.3 1.7 4 3.9-0.7 1.1-2.7 2-4.1 2-12.9 0.2-25.8 0.1-38.6 0.1C94.8 110.1 87.9 110.1 81 110.1z" class="undefined"/><path d="M72 127.5c-16.2 0-32.3 0-48.5 0-1 0-2.2 0.3-3-0.1-1.2-0.7-2.1-1.9-3.2-2.8 1.1-1.1 2.1-2.3 3.3-3.1 0.5-0.4 1.5-0.1 2.3-0.1 32.9 0 65.8 0 98.7 0 1.2 0 2.6-0.1 3.6 0.5 0.9 0.5 1.9 1.8 1.8 2.7 0 0.9-1 2.2-1.9 2.6-1 0.5-2.4 0.4-3.6 0.4C105 127.5 88.5 127.5 72 127.5z" class="undefined"/><path d="M63.3 92.5c-13.9 0-27.8 0-41.7 0-1.2 0-2.6-0.2-3.4-0.9-0.7-0.5-1.1-2.5-0.7-2.9 0.9-1 2.4-2.1 3.7-2.1 8.1-0.2 16.3-0.1 24.4-0.1 19.5 0 39.1 0 58.6 0 0.6 0 1.1 0 1.7 0 2.2 0 4 0.9 4 3.1 0.1 2.5-1.8 2.9-4 2.9-14.2 0-28.5 0-42.7 0C63.3 92.5 63.3 92.5 63.3 92.5z" class="undefined"/><path d="M124.2 57.8c-11.1 0-22.1 0-33.2 0-2.3 0-4.4-0.4-4.4-3 0.1-2.4 2.1-3 4.4-3 22.2 0.1 44.5 0.1 66.7 0 2.4 0 4.4 0.7 4.4 3.1 0 2.5-2.1 3-4.4 2.9C146.5 57.8 135.4 57.8 124.2 57.8z" class="undefined"/><path d="M55.2 156.3c10.9 0 21.9 0 32.8 0 2.1 0 4.3-0.1 4.4 2.9 0 3.1-2.3 3.2-4.5 3.2-21.9 0-43.8 0-65.7 0-0.6 0-1.3 0.2-1.7-0.1-1.2-1-2.9-1.9-3.1-3.2-0.5-2.1 1.3-2.8 3.3-2.8 8.2 0 16.5 0 24.7 0 3.3 0 6.5 0 9.8 0C55.2 156.2 55.2 156.2 55.2 156.3z" class="undefined"/><path d="M133.2 40.6c-7.9 0-15.8 0-23.7 0-1.2 0-2.6 0-3.6-0.5-0.8-0.4-1.7-1.7-1.7-2.5 0-0.9 0.8-2.1 1.6-2.6 1-0.5 2.4-0.6 3.6-0.6 15.8 0 31.6 0 47.4 0 0.2 0 0.5 0 0.7 0 2.3 0 4.7 0.5 4.6 3.2-0.1 2.5-2.3 3-4.5 3-6.9 0-13.8 0-20.6 0C135.7 40.6 134.5 40.6 133.2 40.6z" class="undefined"/></svg>
