<svg xmlns="http://www.w3.org/2000/svg" width="302" height="185" viewBox="0 0 301.7 185.2" class="undefined"><path d="M5.9 156.4c-2.1 0-3.8 0-5.8 0 0-1.1-0.1-2-0.1-3 0-9.8 0-19.7 0-29.5 0-19.4 14.3-33.6 33.7-33.6 7.3 0 7.2 0 7.3-7.2 0.1-3.1-0.2-5.4-3.5-7.3 -3.5-1.9-4.9-5.7-4.9-9.8 0-11.1-0.1-22.3 0-33.4 0.1-10.9 9.2-19.9 20.1-20 4.7 0 9.5-0.2 14.1 0.5 9.7 1.7 16.8 10.5 16.9 20.3 0.1 10.7 0.1 21.5 0 32.2 0 5.2-2.5 9.1-7 11.4 -1.6 0.8-2.1 1.8-2 3.5 0.1 2.2 0.2 4.4 0 6.6 -0.2 2.6 0.9 3.2 3.3 3.2 3.5-0.1 7 0 10.5 0.4 7.7 1 14 4.7 19.3 10.1 0.7 0.7 2 1.4 2.9 1.4 6.1-0.3 12.2-0.8 18.3-1.1 3.9-0.2 4.3-0.4 4.3-4.4 0-3.7 0.1-7.4-0.1-11.1 -0.1-1-0.9-2.4-1.8-2.9 -6.4-3.2-9.6-8.3-9.5-15.4 0-13.7 0-27.3 0-41 0-15 11.5-26.5 26.5-26.5 5.4 0 10.9-0.3 16.2 0.5 12.8 2 21.8 12.7 22 25.6 0.2 14.1 0.1 28.1 0 42.2 -0.1 6.6-3.2 11.5-9.2 14.3 -1.6 0.7-2.4 1.6-2.3 3.3 0.1 3.9 0.1 7.8 0 11.7 0 2.6 1.1 3.6 3.7 3.5 4.5 0 9 0.2 13.5 0.2 0.7 0 1.6-0.4 2.1-0.8 7.6-7.6 16.7-10.6 27.3-10.3 6.4 0.2 5.5 0.8 5.6-5.6 0-0.7-0.1-1.4 0-2.1 0.4-2.8-0.3-4.6-3.2-6.2 -3.9-2.1-5.9-6-5.9-10.5 0-11-0.1-22.1 0-33.1 0.1-10.7 9.3-20 20-20.1 4.7-0.1 9.5-0.3 14.1 0.5 9.8 1.6 16.8 10.3 16.9 20.2 0.1 10.8 0 21.7 0 32.5 0 5-2.3 8.8-6.7 11.4 -0.3 0.2-0.8 0.3-0.8 0.4 -0.2 4.1-0.4 8.3-0.4 12.4 0 0.1 1.6 0.3 2.5 0.3 4.5 0.4 9.1 0.1 13.4 1.1 14.3 3.5 24.3 16.6 24.4 31.3 0.1 10.5 0 21.1 0 31.6 0 0.6-0.1 1.2-0.1 1.9 -1.9 0-3.6 0-5.8 0 0-1.2 0-2.3 0-3.5 0-9.7 0-19.5 0-29.2 0-16.5-10.9-27.4-27.3-27.3 -1.9 0-3.8 0-5.7 0 -4.5-0.1-7.8-3.3-7.9-7.8 -0.1-3.1-0.1-6.2 0-9.3 0.1-3.2 1.5-5.6 4.5-6.9 2.9-1.2 4-3.4 4-6.4 -0.1-10.8 0-21.7 0-32.5 0-8.9-5.9-14.7-14.7-14.8 -3.5 0-7-0.1-10.5 0 -8.1 0.2-13.9 5.9-14 13.9 -0.1 11.1 0 22.3 0 33.4 0 3.1 1.3 5.1 4.1 6.3 3.3 1.4 4.9 3.9 4.9 7.5 0 2.7 0 5.4 0 8.1 -0.1 4.9-3.4 8.2-8.3 8.4 -4.2 0.1-8.4 0.1-12.6 0.6 -4.3 0.6-8.1 2.7-11.7 5.9 1.1 0.5 2 0.9 2.8 1.3 16.4 7.7 25.3 20.4 25.6 38.7 0.1 13 0 26.1 0 39.1 0 1 0 2 0 3.1 -2 0-3.8 0-5.9 0 0-1.1 0-2.2 0-3.2 0-13.3 0.1-26.7-0.1-40 -0.2-16.9-11-30.3-27.4-33.8 -5.1-1.1-10.6-0.8-15.8-1 -6.7-0.2-10.4-3.7-10.4-10.4 0-3.6 0-7.2 0-10.8 0-4 1.7-7 5.5-8.5 4.2-1.7 6-4.8 6-9.1 0-14.2 0.1-28.3 0-42.5 -0.1-11.6-8.5-19.8-20.1-19.9 -4.6 0-9.2-0.1-13.9 0 -10.5 0.2-18.8 8.2-18.9 18.7 -0.2 14.8-0.1 29.5 0 44.3 0 3.9 1.8 6.7 5.5 8.2 4.3 1.7 6.2 4.8 6 9.4 -0.1 3.8 0 7.6 0 11.4 -0.1 4.9-4 8.9-9 9.1 -3.1 0.1-6.2 0-9.3 0 -19.9 0-35.3 15.4-35.3 35.3 0 12.9 0 25.9 0 38.8 0 1.2 0 2.4 0 3.8 -1.9 0-3.7 0-5.8 0 0-0.9-0.1-1.8-0.1-2.8 0-13.2-0.1-26.5 0-39.7 0.1-16 7.6-27.8 21-36.2 0.8-0.5 1.5-0.9 2.6-1.5 -4.7-5.4-10.6-8-17.4-8.5 -2.9-0.2-5.8 0-8.7-0.1 -4.9-0.1-8.3-3.4-8.3-8.3 0-2.7 0-5.4 0-8.1 -0.1-3.5 1.5-6.1 4.6-7.4 3.2-1.4 4.5-3.6 4.5-7 -0.1-10.5 0-21.1-0.1-31.6 0-9.1-6-15.1-15.1-15.1 -3.4 0-6.8 0-10.2 0 -8 0.1-13.8 5.7-13.9 13.6 -0.1 11.4 0 22.9 0 34.3 0 2.7 1.2 4.6 3.7 5.7 3.4 1.4 4.8 4.1 4.7 7.6 0 2.6 0 5.2 0 7.8 0 5.4-3.2 8.6-8.6 8.7 -3.8 0.1-7.7-0.1-11.4 0.6C14.7 99 6.2 109.2 6 121.6c-0.2 10 0 20.1 0 30.1C5.9 153.2 5.9 154.7 5.9 156.4z" class="undefined"/><path d="M140 111.3c2.4-0.9 4.1-1.5 5.8-2.1 2.1 4 2.9 9.4 8.9 8.9 4.6-0.4 4.6-4.9 6-8.6 1.7 0.3 3.5 0.7 6.2 1.2 -1.7 3.5-3.3 6.5-4.7 9.7 -0.7 1.4-1.5 3.1-1.4 4.6 0.8 13.9 1.7 27.8 2.5 41.7 0.1 1.4-0.5 3.1-1.3 4.3 -2.3 3-4.9 5.8-7.7 9 -3-3.5-6-6.9-8.8-10.4 -0.5-0.6-0.3-1.9-0.3-2.9 0.6-14 1.3-28.1 1.8-42.1 0.1-1.5-0.8-3.1-1.6-4.5C143.7 117.3 141.9 114.5 140 111.3zM153.9 124.4c-0.2 0.1-0.5 0.1-0.7 0.2 -0.1 0.6-0.3 1.3-0.3 1.9 -0.6 12.5-1.1 25-1.8 37.5 -0.2 3 0.9 4.9 3.9 7 0.9-2 2.4-3.9 2.3-5.7 -0.6-13-1.6-26-2.5-39C154.7 125.7 154.2 125.1 153.9 124.4z" class="undefined"/><path d="M58.1 152.9c-2.4-2.8-4.7-5.3-6.8-8 -0.6-0.8-0.9-2.2-0.8-3.3 0.4-10.3 0.9-20.6 1.2-30.9 0-1.7-0.9-3.5-1.6-5.1 -1.1-2.3-2.4-4.5-3.8-7 2.2-0.8 3.9-1.4 5.6-2.1 1.8 2.8 1.9 7.6 6.3 6.9 1.9-0.3 3.2-3.6 4.8-5.6 -0.2-0.3-0.4-0.6-0.6-0.9 1.8 0.4 3.6 0.7 6 1.2 -1.3 2.9-2.4 5.4-3.4 7.9 -0.6 1.4-1.3 2.9-1.2 4.4 0.5 10.2 1.2 20.4 1.9 30.6 0.2 2.2-0.4 3.8-1.9 5.4C61.9 148.3 60.2 150.5 58.1 152.9zM58.2 115.4c-0.3 0-0.6 0-0.8 0 -0.3 8.5-0.7 17-0.9 25.5 0 0.9 0.9 1.8 1.7 3.5 0.8-1.8 1.5-2.7 1.5-3.6C59.3 132.3 58.7 123.8 58.2 115.4z" class="undefined"/><path d="M243.9 152.9c-2.6-3-4.9-5.5-7.1-8.3 -0.6-0.8-0.7-2.1-0.6-3.1 0.4-10.4 1-20.8 1.4-31.2 0-1.4-0.7-3-1.3-4.3 -1.2-2.4-2.7-4.6-4.2-7.3 2.2-0.8 3.9-1.4 5.7-2.1 1.8 2.8 1.9 7.2 6.2 7 3.7-0.1 3.2-4.1 4.5-6.7 1.7 0.3 3.4 0.7 5.9 1.2 -1.3 3-2.5 5.5-3.6 8.1 -0.5 1-1.2 2.2-1.2 3.2 0.6 9.9 1.1 19.8 2 29.7 0.3 3.4-0.2 6-2.8 8.3C247.1 148.9 245.7 150.8 243.9 152.9zM243.3 143.5c0.4 0 0.8 0 1.2 0 0.4-1 1.1-2.1 1.1-3.1 -0.5-9.1-1.2-18.1-1.8-27.2 -0.8 9.1-1.3 18.2-1.6 27.3C242.1 141.5 242.9 142.5 243.3 143.5z" class="undefined"/></svg>
